<svg width="64" height="64" viewBox="0 0 64 64" fill="none" xmlns="http://www.w3.org/2000/svg">
<path d="M28.32 40.5699C28.2677 39.5032 27.807 38.4975 27.0336 37.761C26.2601 37.0246 25.233 36.6138 24.165 36.6138C23.097 36.6138 22.0699 37.0246 21.2964 37.761C20.523 38.4975 20.0623 39.5032 20.01 40.5699C19.9956 41.1162 20.0889 41.66 20.2846 42.1703C20.4803 42.6805 20.7746 43.1472 21.1507 43.5437C21.5267 43.9402 21.9772 44.2588 22.4764 44.4812C22.9756 44.7036 23.5137 44.8255 24.06 44.8399C25.1633 44.8691 26.233 44.4588 27.0338 43.6993C27.8346 42.9397 28.3008 41.8932 28.33 40.7899C28.33 40.7299 28.33 40.6499 28.32 40.5699ZM23.37 42.3499C23.1022 42.2218 22.8747 42.0225 22.7124 41.7738C22.5502 41.5252 22.4594 41.2367 22.45 40.9399C22.436 40.817 22.436 40.6929 22.45 40.5699C22.5048 40.1592 22.7068 39.7823 23.0186 39.5093C23.3303 39.2364 23.7306 39.0859 24.145 39.0859C24.5594 39.0859 24.9597 39.2364 25.2714 39.5093C25.5832 39.7823 25.7852 40.1592 25.84 40.5699C25.8472 40.6498 25.8472 40.7301 25.84 40.8099C25.836 41.0996 25.7594 41.3837 25.6171 41.6361C25.4747 41.8884 25.2713 42.101 25.0255 42.2543C24.7796 42.4076 24.4992 42.4967 24.2099 42.5134C23.9207 42.5301 23.6319 42.4739 23.37 42.3499ZM54.76 40.5699C54.7077 39.5032 54.247 38.4975 53.4736 37.761C52.7001 37.0246 51.673 36.6138 50.605 36.6138C49.537 36.6138 48.5099 37.0246 47.7364 37.761C46.963 38.4975 46.5023 39.5032 46.45 40.5699C46.4356 41.1162 46.5289 41.66 46.7246 42.1703C46.9203 42.6805 47.2146 43.1472 47.5907 43.5437C47.9667 43.9402 48.4172 44.2588 48.9164 44.4812C49.4156 44.7036 49.9537 44.8255 50.5 44.8399C51.6033 44.8691 52.673 44.4588 53.4738 43.6993C54.2746 42.9397 54.7408 41.8932 54.77 40.7899C54.77 40.7299 54.77 40.6499 54.76 40.5699ZM49.81 42.3499C49.5422 42.2218 49.3147 42.0225 49.1524 41.7738C48.9902 41.5252 48.8994 41.2367 48.89 40.9399C48.876 40.817 48.876 40.6929 48.89 40.5699C48.9448 40.1592 49.1468 39.7823 49.4586 39.5093C49.7703 39.2364 50.1706 39.0859 50.585 39.0859C50.9994 39.0859 51.3996 39.2364 51.7114 39.5093C52.0232 39.7823 52.2252 40.1592 52.28 40.5699C52.2872 40.6498 52.2872 40.7301 52.28 40.8099C52.276 41.0996 52.1994 41.3837 52.0571 41.6361C51.9147 41.8884 51.7113 42.101 51.4655 42.2543C51.2196 42.4076 50.9392 42.4967 50.6499 42.5134C50.3607 42.5301 50.0719 42.4739 49.81 42.3499ZM25.34 26.9199C25.08 27.7533 24.77 28.6033 24.41 29.4699H25.34C25.2969 28.6205 25.2969 27.7694 25.34 26.9199Z" fill="black"/>
<path d="M59.0001 31.15L56.3101 27.55C56.0447 27.1858 55.6973 26.8891 55.296 26.6841C54.8947 26.4791 54.4507 26.3715 54.0001 26.37H50.5001C50.4296 26.37 50.3599 26.356 50.2949 26.3287C50.2299 26.3015 50.1711 26.2615 50.1217 26.2112C50.0724 26.161 50.0335 26.1014 50.0075 26.0359C49.9815 25.9704 49.9687 25.9004 49.9701 25.83L50.0601 22.28C50.1103 21.8782 50.0763 21.4703 49.9604 21.0823C49.8445 20.6942 49.6492 20.3346 49.3868 20.0261C49.1244 19.7176 48.8007 19.4671 48.4363 19.2905C48.0719 19.1138 47.6747 19.0149 47.2701 19H17.4501C16.7287 19.0188 16.0407 19.3077 15.5222 19.8096C15.0036 20.3114 14.6924 20.9896 14.6501 21.71L14.4801 23.64H10.2101C9.95814 23.6392 9.71519 23.7335 9.5298 23.9041C9.3444 24.0746 9.23021 24.3089 9.21006 24.56C9.21006 24.8252 9.31542 25.0796 9.50295 25.2671C9.69049 25.4546 9.94484 25.56 10.2101 25.56H14.2101L13.9801 28.23H7.76006C7.50814 28.2292 7.26519 28.3235 7.0798 28.4941C6.8944 28.6646 6.78021 28.8989 6.76006 29.15C6.76006 29.4152 6.86542 29.6696 7.05295 29.8571C7.24049 30.0446 7.49484 30.15 7.76006 30.15H13.8601L13.7001 33H5.31006C5.05814 32.9992 4.81519 33.0935 4.6298 33.2641C4.4444 33.4346 4.33021 33.6689 4.31006 33.92C4.31006 34.1852 4.41542 34.4396 4.60295 34.6271C4.79049 34.8146 5.04484 34.92 5.31006 34.92H13.4601L13.0801 39.33C13.0635 39.4756 13.0765 39.623 13.1182 39.7635C13.1599 39.904 13.2295 40.0346 13.3229 40.1475C13.4162 40.2605 13.5314 40.3535 13.6615 40.4209C13.7916 40.4883 13.9339 40.5288 14.0801 40.54H18.1701C18.3035 40.5408 18.4324 40.4922 18.5322 40.4036C18.6319 40.315 18.6952 40.1926 18.7101 40.06C18.8871 38.7695 19.5255 37.5867 20.5072 36.7304C21.4889 35.8742 22.7474 35.4025 24.0501 35.4025C25.3527 35.4025 26.6113 35.8742 27.5929 36.7304C28.5746 37.5867 29.213 38.7695 29.3901 40.06C29.407 40.1917 29.4709 40.3129 29.5702 40.4011C29.6694 40.4893 29.7973 40.5387 29.9301 40.54H44.7301C44.8635 40.5408 44.9924 40.4922 45.0922 40.4036C45.1919 40.315 45.2552 40.1926 45.2701 40.06C45.4471 38.7695 46.0855 37.5867 47.0672 36.7304C48.0489 35.8742 49.3074 35.4025 50.6101 35.4025C51.9127 35.4025 53.1713 35.8742 54.1529 36.7304C55.1346 37.5867 55.773 38.7695 55.9501 40.06C55.967 40.1917 56.0309 40.3129 56.1302 40.4011C56.2294 40.4893 56.3573 40.5387 56.4901 40.54H58.8501C58.9604 40.5361 59.0689 40.5105 59.1693 40.4647C59.2698 40.4189 59.3602 40.3537 59.4354 40.2729C59.5106 40.1921 59.5692 40.0973 59.6077 39.9938C59.6463 39.8904 59.6641 39.7803 59.6601 39.67V33.14C59.6608 32.4228 59.4292 31.7246 59.0001 31.15ZM20.5401 31.56H19.1901L20.3001 25.56H23.0601L22.8201 26.85H21.4201L21.2201 27.95H22.4501L22.2201 29.2H21.0001L20.5401 31.56ZM25.4401 31.56V30.56H24.0001L23.5801 31.56H22.1501L24.8601 25.56H26.3901L26.8701 31.56H25.4401ZM31.0801 27C30.8078 26.8108 30.4905 26.697 30.1601 26.67C30.0108 26.6635 29.8634 26.7056 29.7401 26.79C29.6844 26.83 29.6371 26.8807 29.6011 26.939C29.5651 26.9974 29.5409 27.0623 29.5301 27.13C29.4834 27.3833 29.6567 27.6667 30.0501 27.98C30.3192 28.2036 30.549 28.4706 30.7301 28.77C30.9473 29.1188 31.0191 29.5389 30.9301 29.94C30.8387 30.4517 30.5608 30.9114 30.1501 31.23C29.7922 31.5132 29.36 31.6866 28.9056 31.7292C28.4513 31.7718 27.9943 31.6818 27.5901 31.47L27.8501 30.07C28.1412 30.2879 28.4877 30.4196 28.8501 30.45C29.0054 30.4554 29.1577 30.4058 29.2801 30.31C29.398 30.215 29.4764 30.0796 29.5001 29.93C29.5229 29.8131 29.5015 29.692 29.4401 29.59C29.3462 29.4471 29.2316 29.3191 29.1001 29.21C28.7605 28.9316 28.4756 28.5925 28.2601 28.21C28.1114 27.899 28.0659 27.5487 28.1301 27.21C28.2139 26.7131 28.4729 26.2626 28.8601 25.94C29.2364 25.6128 29.7215 25.4381 30.2201 25.45C30.6009 25.4495 30.9769 25.5349 31.3201 25.7L31.0801 27ZM35.2601 26.95H34.3201L33.4601 31.59H32.0801L32.9401 26.95H32.0001L32.2501 25.58H35.5101L35.2601 26.95ZM41.2601 29.08C41.1538 30.0513 40.8582 30.9924 40.3901 31.85C39.9154 32.7149 39.2768 33.4791 38.5101 34.1C38.3335 34.2429 38.1303 34.3493 37.9123 34.4128C37.6942 34.4763 37.4657 34.4958 37.2401 34.47H37.1201C36.8023 34.4075 36.5086 34.2566 36.2729 34.0346C36.0371 33.8126 35.8688 33.5286 35.7873 33.2151C35.7058 32.9017 35.7144 32.5716 35.8122 32.2629C35.91 31.9542 36.093 31.6793 36.3401 31.47L36.4501 31.39C36.9071 31.0784 37.298 30.6794 37.6 30.216C37.9021 29.7526 38.1094 29.2339 38.2101 28.69C38.3874 27.5414 38.1384 26.3677 37.5101 25.39C36.9832 24.5085 36.2307 23.7835 35.3301 23.29C33.64 22.3871 31.6685 22.1652 29.8201 22.67C30.5204 22.1018 31.3257 21.6771 32.1901 21.42C33.0683 21.1602 33.9891 21.0752 34.9001 21.17C35.8216 21.27 36.7149 21.5485 37.5301 21.99C38.3527 22.4423 39.0795 23.0502 39.6701 23.78C40.2629 24.495 40.7143 25.3163 41.0001 26.2C41.2812 27.1221 41.3797 28.0902 41.2901 29.05L41.2601 29.08ZM56.8201 32.27H50.7901C50.676 32.27 50.5666 32.2247 50.486 32.1441C50.4054 32.0634 50.3601 31.954 50.3601 31.84V28.9C50.3601 28.7488 50.4201 28.6038 50.527 28.4969C50.6339 28.3901 50.7789 28.33 50.9301 28.33H54.0001C54.0894 28.3296 54.1776 28.3502 54.2575 28.3902C54.3374 28.4301 54.4068 28.4883 54.4601 28.56L57.0001 32C57.0093 32.0256 57.0126 32.053 57.0097 32.0801C57.0068 32.1072 56.9978 32.1333 56.9834 32.1564C56.9689 32.1796 56.9494 32.1991 56.9263 32.2136C56.9032 32.228 56.8772 32.2371 56.8501 32.24L56.8201 32.27Z" fill="black"/>
</svg>
