<svg width="64" height="64" viewBox="0 0 64 64" fill="none" xmlns="http://www.w3.org/2000/svg">
<g clip-path="url(#clip0_35_60)">
<path d="M60 16H36.168V28H64V20C64 18.9391 63.5786 17.9217 62.8284 17.1716C62.0783 16.4214 61.0609 16 60 16ZM4 16C2.93913 16 1.92172 16.4214 1.17157 17.1716C0.421427 17.9217 0 18.9391 0 20L0 28H28V16H4ZM4 32V60C4 61.0609 4.42143 62.0783 5.17157 62.8284C5.92172 63.5786 6.93913 64 8 64H28V32H4ZM56 64C57.0609 64 58.0783 63.5786 58.8284 62.8284C59.5786 62.0783 60 61.0609 60 60V32H36.168V64H56ZM31.996 11.968H32.008C32.0035 11.9781 32.0008 11.9889 32 12H48C53.524 12 56 9.312 56 6C56 2.688 53.524 0 48 0C42.828 0 38.756 2.328 36 5.028C34.7571 4.27948 33.3348 3.8814 31.884 3.876C30.436 3.876 29.096 4.284 27.92 4.948C25.168 2.28 21.12 0 16 0C10.476 0 8 2.688 8 6C8 9.312 10.476 12 16 12H32L31.996 11.968ZM52 6C52 7.652 49.824 8 48 8H38.916C38.884 7.944 38.856 7.884 38.824 7.832C40.856 5.856 43.936 4 48 4C49.824 4 52 4.348 52 6ZM12 6C12 4.348 14.176 4 16 4C19.976 4 22.992 5.78 25.024 7.688C24.96 7.788 24.912 7.896 24.852 8H16C14.176 8 12 7.652 12 6Z" fill="black"/>
</g>
<defs>
<clipPath id="clip0_35_60">
<rect width="64" height="64" fill="white"/>
</clipPath>
</defs>
</svg>
