<svg width="64" height="64" viewBox="0 0 64 64" fill="none" xmlns="http://www.w3.org/2000/svg">
<path d="M52.1067 13.5466C49.433 10.8918 46.2559 8.79769 42.762 7.38729C39.268 5.97688 35.5275 5.27856 31.76 5.33331C24.6876 5.31563 17.8978 8.10819 12.8843 13.0967C7.87085 18.0851 5.04438 24.8609 5.02669 31.9333C5.00901 39.0057 7.80157 45.7955 12.79 50.809C17.7785 55.8225 24.5543 58.649 31.6267 58.6666C33.1507 58.6926 34.6401 58.2117 35.8612 57.2995C37.0823 56.3873 37.9659 55.0954 38.3734 53.6266C38.6331 52.566 38.6304 51.458 38.3655 50.3986C38.1007 49.3392 37.5817 48.3603 36.8534 47.5466C36.685 47.355 36.5751 47.1191 36.5368 46.8668C36.4984 46.6146 36.5333 46.3567 36.6372 46.1237C36.741 45.8907 36.9096 45.6923 37.1228 45.5523C37.336 45.4122 37.5849 45.3362 37.84 45.3333H42.24C46.3812 45.3527 50.3764 43.8046 53.4234 41C56.4704 38.1954 58.3435 34.3419 58.6667 30.2133C58.7659 27.1349 58.2352 24.0688 57.1072 21.2028C55.9791 18.3368 54.2775 15.7315 52.1067 13.5466ZM18.24 39.3066C17.5853 39.7516 16.8132 39.9923 16.0216 39.9982C15.23 40.0042 14.4544 39.7751 13.7931 39.34C13.1317 38.9049 12.6144 38.2833 12.3065 37.554C11.9986 36.8246 11.9141 36.0204 12.0636 35.243C12.2131 34.4656 12.5899 33.75 13.1463 33.1869C13.7027 32.6238 14.4137 32.2384 15.1893 32.0797C15.9648 31.9209 16.7701 31.9958 17.503 32.2949C18.236 32.594 18.8637 33.1039 19.3067 33.76C19.6035 34.1933 19.8115 34.6812 19.9186 35.1954C20.0257 35.7097 20.0298 36.24 19.9306 36.7558C19.8314 37.2717 19.6309 37.7627 19.3407 38.2005C19.0505 38.6384 18.6764 39.0143 18.24 39.3066ZM22.1334 24.6666C21.7539 25.3694 21.1729 25.9424 20.4649 26.312C19.757 26.6816 18.9547 26.8309 18.1612 26.7406C17.3677 26.6502 16.6194 26.3244 16.0127 25.8052C15.406 25.2859 14.9686 24.5969 14.7568 23.8269C14.5451 23.0568 14.5686 22.2411 14.8245 21.4846C15.0804 20.7281 15.5569 20.0655 16.1926 19.5821C16.8283 19.0988 17.5942 18.8167 18.3915 18.7724C19.1889 18.7281 19.9813 18.9234 20.6667 19.3333C21.5511 19.8622 22.1972 20.712 22.4705 21.7056C22.7437 22.6992 22.6229 23.7599 22.1334 24.6666ZM29.3334 18.6666C28.5422 18.6666 27.7689 18.432 27.1111 17.9925C26.4533 17.553 25.9406 16.9283 25.6378 16.1974C25.3351 15.4665 25.2559 14.6622 25.4102 13.8863C25.5646 13.1104 25.9455 12.3976 26.5049 11.8382C27.0643 11.2788 27.7771 10.8978 28.553 10.7435C29.3289 10.5892 30.1332 10.6684 30.8641 10.9711C31.595 11.2739 32.2197 11.7866 32.6592 12.4444C33.0988 13.1022 33.3334 13.8755 33.3334 14.6666C33.3334 15.7275 32.9119 16.7449 32.1618 17.4951C31.4116 18.2452 30.3942 18.6666 29.3334 18.6666ZM44.6667 20.8C43.9813 21.2099 43.1889 21.4052 42.3915 21.3609C41.5942 21.3165 40.8283 21.0345 40.1926 20.5512C39.5569 20.0678 39.0804 19.4052 38.8245 18.6487C38.5686 17.8922 38.5451 17.0764 38.7568 16.3064C38.9686 15.5364 39.406 14.8474 40.0127 14.3281C40.6194 13.8088 41.3677 13.4831 42.1612 13.3927C42.9547 13.3024 43.757 13.4516 44.4649 13.8213C45.1729 14.1909 45.7539 14.7639 46.1334 15.4666C46.6229 16.3734 46.7437 17.4341 46.4705 18.4277C46.1972 19.4213 45.5511 20.2711 44.6667 20.8Z" fill="black"/>
</svg>
