<svg width="64" height="64" viewBox="0 0 64 64" fill="none" xmlns="http://www.w3.org/2000/svg">
<path d="M41.3801 2.73999H22.6201C17.8462 2.73999 13.2679 4.63641 9.8922 8.01207C6.51654 11.3877 4.62012 15.9661 4.62012 20.74V43.82C4.62012 48.5939 6.51654 53.1723 9.8922 56.5479C13.2679 59.9236 17.8462 61.82 22.6201 61.82H41.3801C46.154 61.82 50.7324 59.9236 54.108 56.5479C57.4837 53.1723 59.3801 48.5939 59.3801 43.82V20.74C59.3801 15.9661 57.4837 11.3877 54.108 8.01207C50.7324 4.63641 46.154 2.73999 41.3801 2.73999ZM32.0001 11.76C32.3957 11.76 32.7824 11.8773 33.1113 12.0971C33.4402 12.3168 33.6965 12.6292 33.8479 12.9946C33.9993 13.3601 34.0389 13.7622 33.9617 14.1502C33.8845 14.5381 33.694 14.8945 33.4143 15.1742C33.1346 15.4539 32.7783 15.6444 32.3903 15.7216C32.0023 15.7987 31.6002 15.7591 31.2347 15.6077C30.8693 15.4564 30.5569 15.2 30.3372 14.8711C30.1174 14.5422 30.0001 14.1556 30.0001 13.76C30.0001 13.2296 30.2108 12.7208 30.5859 12.3458C30.961 11.9707 31.4697 11.76 32.0001 11.76ZM11.1201 20.78C11.1201 20.3844 11.2374 19.9977 11.4572 19.6688C11.6769 19.34 11.9893 19.0836 12.3548 18.9322C12.7202 18.7809 13.1223 18.7412 13.5103 18.8184C13.8983 18.8956 14.2546 19.0861 14.5343 19.3658C14.814 19.6455 15.0045 20.0018 15.0817 20.3898C15.1589 20.7778 15.1193 21.1799 14.9679 21.5454C14.8165 21.9108 14.5602 22.2232 14.2313 22.4429C13.9024 22.6627 13.5157 22.78 13.1201 22.78C12.5897 22.78 12.081 22.5693 11.7059 22.1942C11.3308 21.8191 11.1201 21.3104 11.1201 20.78ZM51.3001 25.84L46.1201 44.9C46.0029 45.3363 45.7414 45.7201 45.3783 45.9888C45.0151 46.2576 44.5716 46.3955 44.1201 46.38H18.9401C18.4665 46.3877 18.0056 46.2271 17.6393 45.9268C17.2731 45.6265 17.0253 45.2059 16.9401 44.74L13.4801 25.68C13.4138 25.338 13.438 24.9847 13.5503 24.6549C13.6625 24.3252 13.859 24.0305 14.1201 23.8C14.3889 23.5634 14.7163 23.4033 15.0682 23.3365C15.42 23.2696 15.7833 23.2985 16.1201 23.42L26.7601 26.88L30.2001 18.14C30.3444 17.7772 30.5917 17.4646 30.9116 17.2407C31.2315 17.0168 31.6098 16.8914 32.0001 16.88C32.4002 16.8558 32.7974 16.9615 33.1326 17.1813C33.4678 17.4011 33.7229 17.7234 33.8601 18.1L37.3601 26.4L48.8801 23.38C49.2292 23.2764 49.6 23.27 49.9525 23.3617C50.3049 23.4533 50.6257 23.6394 50.8801 23.9C51.1129 24.1588 51.2741 24.474 51.3478 24.8142C51.4214 25.1545 51.405 25.508 51.3001 25.84ZM51.0401 22.84C50.6446 22.84 50.2579 22.7227 49.929 22.5029C49.6001 22.2832 49.3437 21.9708 49.1924 21.6054C49.041 21.2399 49.0014 20.8378 49.0785 20.4498C49.1557 20.0618 49.3462 19.7055 49.6259 19.4258C49.9056 19.1461 50.262 18.9556 50.6499 18.8784C51.0379 18.8012 51.44 18.8409 51.8055 18.9922C52.1709 19.1436 52.4833 19.4 52.7031 19.7288C52.9228 20.0577 53.0401 20.4444 53.0401 20.84C53.0401 21.3704 52.8294 21.8791 52.4543 22.2542C52.0793 22.6293 51.5706 22.84 51.0401 22.84Z" fill="black"/>
<path d="M49.3799 25.3199L44.1799 44.3799H18.9399L15.4399 25.3199L27.8799 29.3799L31.9999 18.8799L36.1599 28.7799L49.3799 25.3199Z" fill="black"/>
</svg>
